<svg width="68" height="33" viewBox="0 0 68 33" fill="none" xmlns="http://www.w3.org/2000/svg">
<path d="M0.7685 24L8.2325 7.08H9.9125L17.3765 24H15.3365L13.4645 19.68H4.6565L2.8085 24H0.7685ZM9.0485 9.384L5.3765 18.024H12.7685L9.0965 9.384H9.0485ZM23.1969 24.216C22.0129 24.216 21.1169 23.872 20.5089 23.184C19.9169 22.48 19.6209 21.464 19.6209 20.136V7.08H21.5649V19.992C21.5649 21.704 22.2449 22.56 23.6049 22.56C24.0049 22.56 24.3649 22.512 24.6849 22.416L24.6369 24.048C24.1409 24.16 23.6609 24.216 23.1969 24.216ZM30.2984 24.216C29.1144 24.216 28.2184 23.872 27.6104 23.184C27.0184 22.48 26.7224 21.464 26.7224 20.136V7.08H28.6664V19.992C28.6664 21.704 29.3464 22.56 30.7064 22.56C31.1064 22.56 31.4664 22.512 31.7864 22.416L31.7384 24.048C31.2424 24.16 30.7624 24.216 30.2984 24.216Z" fill="#A1B0CC"/>
<path d="M42 16.5H61.5M61.5 16.5L54 9M61.5 16.5L54 24" stroke="#A1B0CC" stroke-width="2" stroke-linecap="round" stroke-linejoin="round"/>
</svg>
