<svg width="228" height="17" viewBox="0 0 228 17" fill="none" xmlns="http://www.w3.org/2000/svg">
<path d="M7.37134 13.662C6.44734 13.662 5.58934 13.5 4.79734 13.176C4.00534 12.84 3.31534 12.378 2.72734 11.79C2.13934 11.19 1.67734 10.5 1.34134 9.72C1.01734 8.928 0.855344 8.07 0.855344 7.146C0.855344 6.222 1.01734 5.37 1.34134 4.59C1.67734 3.798 2.13934 3.108 2.72734 2.52C3.31534 1.932 4.00534 1.476 4.79734 1.152C5.58934 0.815999 6.44734 0.647999 7.37134 0.647999C8.29534 0.647999 9.14734 0.815999 9.92734 1.152C10.7193 1.476 11.4093 1.932 11.9973 2.52C12.5853 3.108 13.0413 3.798 13.3653 4.59C13.7013 5.37 13.8693 6.222 13.8693 7.146C13.8693 8.07 13.7013 8.928 13.3653 9.72C13.0413 10.5 12.5853 11.19 11.9973 11.79C11.4093 12.378 10.7193 12.84 9.92734 13.176C9.14734 13.5 8.29534 13.662 7.37134 13.662ZM7.37134 12.87C8.17534 12.87 8.91934 12.726 9.60334 12.438C10.2993 12.15 10.8993 11.748 11.4033 11.232C11.9193 10.704 12.3213 10.098 12.6093 9.414C12.8973 8.718 13.0413 7.962 13.0413 7.146C13.0413 6.33 12.8973 5.58 12.6093 4.896C12.3213 4.2 11.9193 3.594 11.4033 3.078C10.8993 2.562 10.2993 2.16 9.60334 1.872C8.91934 1.584 8.17534 1.44 7.37134 1.44C6.56734 1.44 5.81734 1.584 5.12134 1.872C4.42534 2.16 3.81934 2.562 3.30334 3.078C2.79934 3.594 2.40334 4.2 2.11534 4.896C1.82734 5.58 1.68334 6.33 1.68334 7.146C1.68334 7.962 1.82734 8.718 2.11534 9.414C2.40334 10.098 2.79934 10.704 3.30334 11.232C3.81934 11.748 4.42534 12.15 5.12134 12.438C5.81734 12.726 6.56734 12.87 7.37134 12.87ZM7.60534 11.034C6.45334 11.034 5.54134 10.68 4.86934 9.972C4.19734 9.252 3.86134 8.298 3.86134 7.11C3.86134 5.922 4.19734 4.986 4.86934 4.302C5.54134 3.618 6.45334 3.276 7.60534 3.276C8.08534 3.276 8.55334 3.36 9.00934 3.528C9.47734 3.696 9.86734 3.93 10.1793 4.23L9.74734 5.166C9.42334 4.89 9.08134 4.686 8.72134 4.554C8.36134 4.422 8.00734 4.356 7.65934 4.356C6.87934 4.356 6.26734 4.596 5.82334 5.076C5.37934 5.556 5.15734 6.234 5.15734 7.11C5.15734 7.986 5.37934 8.682 5.82334 9.198C6.26734 9.702 6.87934 9.954 7.65934 9.954C8.00734 9.954 8.36134 9.888 8.72134 9.756C9.08134 9.624 9.42334 9.414 9.74734 9.126L10.1793 10.08C9.86734 10.368 9.47734 10.602 9.00934 10.782C8.54134 10.95 8.07334 11.034 7.60534 11.034ZM20.9481 13.5V12.384L25.2861 7.704C25.8981 7.032 26.3361 6.42 26.6001 5.868C26.8761 5.316 27.0141 4.752 27.0141 4.176C27.0141 2.7 26.1561 1.962 24.4401 1.962C23.1561 1.962 22.0221 2.442 21.0381 3.402L20.4801 2.25C20.9481 1.77 21.5421 1.386 22.2621 1.098C22.9941 0.797999 23.7621 0.647999 24.5661 0.647999C25.8381 0.647999 26.8101 0.947999 27.4821 1.548C28.1661 2.136 28.5081 2.976 28.5081 4.068C28.5081 4.824 28.3221 5.568 27.9501 6.3C27.5781 7.02 27.0081 7.788 26.2401 8.604L22.8381 12.24H29.0301V13.5H20.9481ZM35.5211 13.662C34.0691 13.662 32.9651 13.104 32.2091 11.988C31.4531 10.872 31.0751 9.258 31.0751 7.146C31.0751 5.022 31.4531 3.408 32.2091 2.304C32.9651 1.2 34.0691 0.647999 35.5211 0.647999C36.9851 0.647999 38.0891 1.2 38.8331 2.304C39.5891 3.396 39.9671 5.004 39.9671 7.128C39.9671 9.252 39.5831 10.872 38.8151 11.988C38.0591 13.104 36.9611 13.662 35.5211 13.662ZM35.5211 12.384C36.5291 12.384 37.2731 11.958 37.7531 11.106C38.2451 10.254 38.4911 8.928 38.4911 7.128C38.4911 5.328 38.2511 4.014 37.7711 3.186C37.2911 2.346 36.5411 1.926 35.5211 1.926C34.5131 1.926 33.7631 2.346 33.2711 3.186C32.7911 4.026 32.5511 5.34 32.5511 7.128C32.5511 8.928 32.7911 10.254 33.2711 11.106C33.7631 11.958 34.5131 12.384 35.5211 12.384ZM42.5341 13.5V12.384L46.8721 7.704C47.4841 7.032 47.9221 6.42 48.1861 5.868C48.4621 5.316 48.6001 4.752 48.6001 4.176C48.6001 2.7 47.7421 1.962 46.0261 1.962C44.7421 1.962 43.6081 2.442 42.6241 3.402L42.0661 2.25C42.5341 1.77 43.1281 1.386 43.8481 1.098C44.5801 0.797999 45.3481 0.647999 46.1521 0.647999C47.4241 0.647999 48.3961 0.947999 49.0681 1.548C49.7521 2.136 50.0941 2.976 50.0941 4.068C50.0941 4.824 49.9081 5.568 49.5361 6.3C49.1641 7.02 48.5941 7.788 47.8261 8.604L44.4241 12.24H50.6161V13.5H42.5341ZM57.107 13.662C55.655 13.662 54.551 13.104 53.795 11.988C53.039 10.872 52.661 9.258 52.661 7.146C52.661 5.022 53.039 3.408 53.795 2.304C54.551 1.2 55.655 0.647999 57.107 0.647999C58.571 0.647999 59.675 1.2 60.419 2.304C61.175 3.396 61.553 5.004 61.553 7.128C61.553 9.252 61.169 10.872 60.401 11.988C59.645 13.104 58.547 13.662 57.107 13.662ZM57.107 12.384C58.115 12.384 58.859 11.958 59.339 11.106C59.831 10.254 60.077 8.928 60.077 7.128C60.077 5.328 59.837 4.014 59.357 3.186C58.877 2.346 58.127 1.926 57.107 1.926C56.099 1.926 55.349 2.346 54.857 3.186C54.377 4.026 54.137 5.34 54.137 7.128C54.137 8.928 54.377 10.254 54.857 11.106C55.349 11.958 56.099 12.384 57.107 12.384ZM71.803 13.5V2.088H67.195V0.809999H77.905V2.088H73.297V13.5H71.803ZM77.9481 13.5V4.752H79.3701V6.318C79.8381 5.262 80.7981 4.68 82.2501 4.572L82.7721 4.518L82.8801 5.778L81.9621 5.886C81.1341 5.958 80.5041 6.222 80.0721 6.678C79.6401 7.122 79.4241 7.734 79.4241 8.514V13.5H77.9481ZM84.2192 2.574V0.936H86.0193V2.574H84.2192ZM84.3993 13.5V4.752H85.8573V13.5H84.3993ZM88.5828 16.74V4.752H90.0048V6.318C90.2688 5.778 90.6588 5.358 91.1748 5.058C91.7028 4.746 92.3148 4.59 93.0108 4.59C93.7908 4.59 94.4688 4.776 95.0448 5.148C95.6328 5.508 96.0828 6.03 96.3948 6.714C96.7188 7.386 96.8808 8.19 96.8808 9.126C96.8808 10.05 96.7188 10.854 96.3948 11.538C96.0828 12.21 95.6328 12.732 95.0448 13.104C94.4688 13.476 93.7908 13.662 93.0108 13.662C92.3388 13.662 91.7388 13.512 91.2108 13.212C90.6828 12.912 90.2928 12.498 90.0408 11.97V16.74H88.5828ZM92.7048 12.492C93.5208 12.492 94.1748 12.204 94.6668 11.628C95.1588 11.04 95.4048 10.206 95.4048 9.126C95.4048 8.034 95.1588 7.2 94.6668 6.624C94.1748 6.048 93.5208 5.76 92.7048 5.76C91.8888 5.76 91.2348 6.048 90.7428 6.624C90.2508 7.2 90.0048 8.034 90.0048 9.126C90.0048 10.206 90.2508 11.04 90.7428 11.628C91.2348 12.204 91.8888 12.492 92.7048 12.492ZM99.113 13.5V4.752H100.535V6.228C100.799 5.7 101.165 5.298 101.633 5.022C102.101 4.734 102.647 4.59 103.271 4.59C104.639 4.59 105.515 5.184 105.899 6.372C106.163 5.82 106.553 5.388 107.069 5.076C107.585 4.752 108.179 4.59 108.851 4.59C110.795 4.59 111.767 5.742 111.767 8.046V13.5H110.309V8.118C110.309 7.314 110.165 6.726 109.877 6.354C109.601 5.97 109.139 5.778 108.491 5.778C107.783 5.778 107.219 6.03 106.799 6.534C106.379 7.038 106.169 7.71 106.169 8.55V13.5H104.711V8.118C104.711 7.314 104.567 6.726 104.279 6.354C104.003 5.97 103.541 5.778 102.893 5.778C102.173 5.778 101.603 6.03 101.183 6.534C100.775 7.038 100.571 7.71 100.571 8.55V13.5H99.113ZM117.247 13.662C116.647 13.662 116.107 13.548 115.627 13.32C115.159 13.08 114.787 12.756 114.511 12.348C114.235 11.94 114.097 11.484 114.097 10.98C114.097 10.344 114.259 9.84 114.583 9.468C114.919 9.096 115.465 8.832 116.221 8.676C116.989 8.508 118.033 8.424 119.353 8.424H119.929V7.866C119.929 7.122 119.773 6.588 119.461 6.264C119.161 5.928 118.675 5.76 118.003 5.76C117.475 5.76 116.965 5.838 116.473 5.994C115.981 6.138 115.477 6.378 114.961 6.714L114.457 5.652C114.913 5.328 115.465 5.07 116.113 4.878C116.773 4.686 117.403 4.59 118.003 4.59C119.131 4.59 119.965 4.866 120.505 5.418C121.057 5.97 121.333 6.828 121.333 7.992V13.5H119.965V11.988C119.737 12.504 119.383 12.912 118.903 13.212C118.435 13.512 117.883 13.662 117.247 13.662ZM117.481 12.564C118.201 12.564 118.789 12.318 119.245 11.826C119.701 11.322 119.929 10.686 119.929 9.918V9.378H119.371C118.399 9.378 117.631 9.426 117.067 9.522C116.515 9.606 116.125 9.762 115.897 9.99C115.681 10.206 115.573 10.506 115.573 10.89C115.573 11.382 115.741 11.784 116.077 12.096C116.425 12.408 116.893 12.564 117.481 12.564ZM128.481 2.574V0.936H130.281V2.574H128.481ZM128.661 13.5V4.752H130.119V13.5H128.661ZM132.845 13.5V4.752H134.267V6.246C134.555 5.694 134.963 5.28 135.491 5.004C136.019 4.728 136.613 4.59 137.273 4.59C139.349 4.59 140.387 5.742 140.387 8.046V13.5H138.929V8.136C138.929 7.32 138.767 6.726 138.443 6.354C138.131 5.97 137.627 5.778 136.931 5.778C136.127 5.778 135.485 6.03 135.005 6.534C134.537 7.026 134.303 7.686 134.303 8.514V13.5H132.845ZM146.783 13.662C145.907 13.662 145.151 13.476 144.515 13.104C143.879 12.72 143.387 12.186 143.039 11.502C142.703 10.806 142.535 9.996 142.535 9.072C142.535 7.68 142.913 6.588 143.669 5.796C144.425 4.992 145.463 4.59 146.783 4.59C147.323 4.59 147.857 4.686 148.385 4.878C148.913 5.07 149.351 5.34 149.699 5.688L149.195 6.75C148.847 6.414 148.463 6.168 148.043 6.012C147.635 5.856 147.245 5.778 146.873 5.778C145.961 5.778 145.259 6.066 144.767 6.642C144.275 7.206 144.029 8.022 144.029 9.09C144.029 10.134 144.275 10.962 144.767 11.574C145.259 12.174 145.961 12.474 146.873 12.474C147.245 12.474 147.635 12.396 148.043 12.24C148.463 12.084 148.847 11.832 149.195 11.484L149.699 12.546C149.351 12.894 148.907 13.17 148.367 13.374C147.839 13.566 147.311 13.662 146.783 13.662ZM154.867 13.662C154.015 13.662 153.277 13.476 152.653 13.104C152.029 12.732 151.543 12.21 151.195 11.538C150.859 10.854 150.691 10.05 150.691 9.126C150.691 8.202 150.859 7.404 151.195 6.732C151.543 6.048 152.029 5.52 152.653 5.148C153.277 4.776 154.015 4.59 154.867 4.59C155.707 4.59 156.439 4.776 157.063 5.148C157.699 5.52 158.185 6.048 158.521 6.732C158.869 7.404 159.043 8.202 159.043 9.126C159.043 10.05 158.869 10.854 158.521 11.538C158.185 12.21 157.699 12.732 157.063 13.104C156.439 13.476 155.707 13.662 154.867 13.662ZM154.867 12.492C155.683 12.492 156.337 12.204 156.829 11.628C157.321 11.04 157.567 10.206 157.567 9.126C157.567 8.034 157.321 7.2 156.829 6.624C156.337 6.048 155.683 5.76 154.867 5.76C154.039 5.76 153.379 6.048 152.887 6.624C152.407 7.2 152.167 8.034 152.167 9.126C152.167 10.206 152.407 11.04 152.887 11.628C153.379 12.204 154.039 12.492 154.867 12.492ZM161.233 13.5V4.752H162.655V6.318C163.123 5.262 164.083 4.68 165.535 4.572L166.057 4.518L166.165 5.778L165.247 5.886C164.419 5.958 163.789 6.222 163.357 6.678C162.925 7.122 162.709 7.734 162.709 8.514V13.5H161.233ZM167.684 16.74V4.752H169.106V6.318C169.37 5.778 169.76 5.358 170.276 5.058C170.804 4.746 171.416 4.59 172.112 4.59C172.892 4.59 173.57 4.776 174.146 5.148C174.734 5.508 175.184 6.03 175.496 6.714C175.82 7.386 175.982 8.19 175.982 9.126C175.982 10.05 175.82 10.854 175.496 11.538C175.184 12.21 174.734 12.732 174.146 13.104C173.57 13.476 172.892 13.662 172.112 13.662C171.44 13.662 170.84 13.512 170.312 13.212C169.784 12.912 169.394 12.498 169.142 11.97V16.74H167.684ZM171.806 12.492C172.622 12.492 173.276 12.204 173.768 11.628C174.26 11.04 174.506 10.206 174.506 9.126C174.506 8.034 174.26 7.2 173.768 6.624C173.276 6.048 172.622 5.76 171.806 5.76C170.99 5.76 170.336 6.048 169.844 6.624C169.352 7.2 169.106 8.034 169.106 9.126C169.106 10.206 169.352 11.04 169.844 11.628C170.336 12.204 170.99 12.492 171.806 12.492ZM181.815 13.662C180.963 13.662 180.225 13.476 179.601 13.104C178.977 12.732 178.491 12.21 178.143 11.538C177.807 10.854 177.639 10.05 177.639 9.126C177.639 8.202 177.807 7.404 178.143 6.732C178.491 6.048 178.977 5.52 179.601 5.148C180.225 4.776 180.963 4.59 181.815 4.59C182.655 4.59 183.387 4.776 184.011 5.148C184.647 5.52 185.133 6.048 185.469 6.732C185.817 7.404 185.991 8.202 185.991 9.126C185.991 10.05 185.817 10.854 185.469 11.538C185.133 12.21 184.647 12.732 184.011 13.104C183.387 13.476 182.655 13.662 181.815 13.662ZM181.815 12.492C182.631 12.492 183.285 12.204 183.777 11.628C184.269 11.04 184.515 10.206 184.515 9.126C184.515 8.034 184.269 7.2 183.777 6.624C183.285 6.048 182.631 5.76 181.815 5.76C180.987 5.76 180.327 6.048 179.835 6.624C179.355 7.2 179.115 8.034 179.115 9.126C179.115 10.206 179.355 11.04 179.835 11.628C180.327 12.204 180.987 12.492 181.815 12.492ZM188.181 13.5V4.752H189.603V6.318C190.071 5.262 191.031 4.68 192.483 4.572L193.005 4.518L193.113 5.778L192.195 5.886C191.367 5.958 190.737 6.222 190.305 6.678C189.873 7.122 189.657 7.734 189.657 8.514V13.5H188.181ZM197.298 13.662C196.698 13.662 196.158 13.548 195.678 13.32C195.21 13.08 194.838 12.756 194.562 12.348C194.286 11.94 194.148 11.484 194.148 10.98C194.148 10.344 194.31 9.84 194.634 9.468C194.97 9.096 195.516 8.832 196.272 8.676C197.04 8.508 198.084 8.424 199.404 8.424H199.98V7.866C199.98 7.122 199.824 6.588 199.512 6.264C199.212 5.928 198.726 5.76 198.054 5.76C197.526 5.76 197.016 5.838 196.524 5.994C196.032 6.138 195.528 6.378 195.012 6.714L194.508 5.652C194.964 5.328 195.516 5.07 196.164 4.878C196.824 4.686 197.454 4.59 198.054 4.59C199.182 4.59 200.016 4.866 200.556 5.418C201.108 5.97 201.384 6.828 201.384 7.992V13.5H200.016V11.988C199.788 12.504 199.434 12.912 198.954 13.212C198.486 13.512 197.934 13.662 197.298 13.662ZM197.532 12.564C198.252 12.564 198.84 12.318 199.296 11.826C199.752 11.322 199.98 10.686 199.98 9.918V9.378H199.422C198.45 9.378 197.682 9.426 197.118 9.522C196.566 9.606 196.176 9.762 195.948 9.99C195.732 10.206 195.624 10.506 195.624 10.89C195.624 11.382 195.792 11.784 196.128 12.096C196.476 12.408 196.944 12.564 197.532 12.564ZM207.599 13.662C206.567 13.662 205.793 13.392 205.277 12.852C204.761 12.3 204.503 11.508 204.503 10.476V5.886H202.793V4.752H204.503V2.07H205.961V4.752H208.733V5.886H205.961V10.332C205.961 11.016 206.105 11.538 206.393 11.898C206.681 12.246 207.149 12.42 207.797 12.42C207.989 12.42 208.181 12.396 208.373 12.348C208.565 12.3 208.739 12.252 208.895 12.204L209.147 13.32C208.991 13.404 208.763 13.482 208.463 13.554C208.163 13.626 207.875 13.662 207.599 13.662ZM214.236 13.662C212.856 13.662 211.764 13.26 210.96 12.456C210.156 11.64 209.754 10.536 209.754 9.144C209.754 8.244 209.934 7.452 210.294 6.768C210.654 6.072 211.146 5.538 211.77 5.166C212.406 4.782 213.138 4.59 213.966 4.59C215.154 4.59 216.084 4.974 216.756 5.742C217.428 6.498 217.764 7.542 217.764 8.874V9.432H211.176C211.224 10.428 211.512 11.19 212.04 11.718C212.568 12.234 213.3 12.492 214.236 12.492C214.764 12.492 215.268 12.414 215.748 12.258C216.228 12.09 216.684 11.82 217.116 11.448L217.62 12.474C217.224 12.846 216.72 13.14 216.108 13.356C215.496 13.56 214.872 13.662 214.236 13.662ZM214.002 5.67C213.174 5.67 212.52 5.928 212.04 6.444C211.56 6.96 211.278 7.638 211.194 8.478H216.504C216.468 7.59 216.234 6.9 215.802 6.408C215.382 5.916 214.782 5.67 214.002 5.67ZM223.204 13.662C222.424 13.662 221.74 13.476 221.152 13.104C220.576 12.732 220.126 12.21 219.802 11.538C219.49 10.854 219.334 10.05 219.334 9.126C219.334 8.19 219.49 7.386 219.802 6.714C220.126 6.03 220.576 5.508 221.152 5.148C221.74 4.776 222.424 4.59 223.204 4.59C223.888 4.59 224.488 4.74 225.004 5.04C225.532 5.34 225.922 5.754 226.174 6.282V0.809999H227.632V13.5H226.21V11.898C225.958 12.45 225.568 12.882 225.04 13.194C224.512 13.506 223.9 13.662 223.204 13.662ZM223.51 12.492C224.326 12.492 224.98 12.204 225.472 11.628C225.964 11.04 226.21 10.206 226.21 9.126C226.21 8.034 225.964 7.2 225.472 6.624C224.98 6.048 224.326 5.76 223.51 5.76C222.682 5.76 222.022 6.048 221.53 6.624C221.05 7.2 220.81 8.034 220.81 9.126C220.81 10.206 221.05 11.04 221.53 11.628C222.022 12.204 222.682 12.492 223.51 12.492Z" fill="#7C8DB0"/>
</svg>
